# xmcd
#
# Track frame offsets: 
#        150
#        17307
#        35799
#        53028
#        74677
#
# Disc length: 1247 seconds
#
# Revision: 0
# Processed by: cddbd v1.5.2PL0 Copyright (c) Steve Scherf et al.
# Submitted via: ExactAudioCopy v0.95b4
#
DISCID=3e04dd05
DTITLE=Fukuhara Miho - The Soul Extreme EP II
DYEAR=2011
DGENRE=JPop
TTITLE0=Get Up!
TTITLE1=Bad Thing
TTITLE2=Better Than Love
TTITLE3=Sunday Morning
TTITLE4=One Day
EXTD=
EXTT0=
EXTT1=
EXTT2=
EXTT3=
EXTT4=
PLAYORDER=
